<?xml version="1.0" ?><svg id="Layer_1" style="enable-background:new 0 0 128 128;" version="1.1" viewBox="0 0 128 128" xml:space="preserve" xmlns="http://www.w3.org/2000/svg" xmlns:xlink="http://www.w3.org/1999/xlink"><g><path d="M100,127c7.7,0,14-6.3,14-14h-8c0,3.3-2.7,6-6,6H28c-3.3,0-6-2.7-6-6h-8c0,7.7,6.3,14,14,14H100z"/><path d="M22,59c0-23.2,18.8-42,42-42s42,18.8,42,42h8c0-27.6-22.4-50-50-50S14,31.4,14,59H22z"/><path d="M108,67H93.3L79,81.3L64.7,67H20C9.5,67,1,75.5,1,86s8.5,19,19,19h88c10.5,0,19-8.5,19-19S118.5,67,108,67z M108,97H20   c-6.1,0-11-4.9-11-11s4.9-11,11-11h41.3L79,92.7L96.7,75H108c6.1,0,11,4.9,11,11S114.1,97,108,97z"/><rect height="8" width="8" x="36" y="51.3"/><rect height="8" width="8" x="56" y="33.3"/></g></svg>