<svg width="21" height="20" viewBox="0 0 21 20" fill="none" xmlns="http://www.w3.org/2000/svg">
<path d="M10.4174 2C9.60795 2 8.81669 2.26238 8.14366 2.75395C7.47064 3.24553 6.94608 3.94422 6.63632 4.76168C6.32657 5.57914 6.24552 6.47865 6.40343 7.34646C6.56135 8.21427 6.95113 9.0114 7.52349 9.63706C8.09585 10.2627 8.82508 10.6888 9.61896 10.8614C10.4128 11.034 11.2357 10.9454 11.9836 10.6068C12.7314 10.2682 13.3706 9.69482 13.8203 8.95913C14.27 8.22344 14.51 7.3585 14.51 6.47368C14.51 5.28719 14.0788 4.14929 13.3113 3.31031C12.5438 2.47133 11.5028 2 10.4174 2ZM10.4174 9.15789C9.93172 9.15789 9.45697 9.00047 9.05315 8.70552C8.64934 8.41058 8.3346 7.99136 8.14875 7.50089C7.96289 7.01041 7.91427 6.47071 8.00901 5.95002C8.10376 5.42933 8.33763 4.95105 8.68105 4.57566C9.02446 4.20027 9.462 3.94462 9.93833 3.84105C10.4147 3.73748 10.9084 3.79064 11.3571 3.9938C11.8058 4.19696 12.1893 4.541 12.4591 4.98242C12.7289 5.42383 12.8729 5.9428 12.8729 6.47368C12.8729 7.18558 12.6142 7.86832 12.1537 8.37171C11.6932 8.87509 11.0686 9.15789 10.4174 9.15789ZM17.7841 19V18.1053C17.7841 16.4442 17.1804 14.8511 16.1059 13.6765C15.0314 12.502 13.574 11.8421 12.0544 11.8421H8.78035C7.26076 11.8421 5.8034 12.502 4.72889 13.6765C3.65438 14.8511 3.05072 16.4442 3.05072 18.1053V19H4.68776V18.1053C4.68776 16.9188 5.11894 15.7809 5.88645 14.9419C6.65396 14.1029 7.69493 13.6316 8.78035 13.6316H12.0544C13.1398 13.6316 14.1808 14.1029 14.9483 14.9419C15.7158 15.7809 16.147 16.9188 16.147 18.1053V19H17.7841Z" fill="#E5E5E5"/>
</svg>
