<svg width="21" height="20" viewBox="0 0 21 20" fill="none" xmlns="http://www.w3.org/2000/svg">
<path d="M9.83241 18.5485C6.39 18.3227 3.34054 15.8766 2.34008 12.5383C1.84074 10.8722 1.81012 9.58918 2.23026 7.93761C3.04494 4.73504 5.58214 2.29932 8.78997 1.64018C10.2763 1.33489 11.1076 1.35432 12.6953 1.73161C15.616 2.42589 18.0816 4.88789 18.9037 7.93104C19.1709 8.92004 19.1511 11.2205 18.8664 12.2593C17.9319 15.6699 14.9327 18.2185 11.4747 18.5406C11.0749 18.5778 10.3359 18.5806 9.8324 18.5549L9.83241 18.5485ZM12.5114 16.6835C16.2737 15.6036 18.3997 11.547 17.1551 7.82289C16.8899 7.02918 16.2487 5.87489 16.0731 5.87489C16.0109 5.87489 15.7005 6.13604 15.3833 6.45518L14.8065 7.03561L14.1044 7.08989C13.7183 7.11989 13.2067 7.20418 12.9676 7.27646L12.5327 7.40789V7.08918C12.5327 6.80447 12.6523 6.64875 13.6527 5.63132L14.7726 4.49232L14.5452 4.31732C14.1742 4.03204 12.8978 3.44346 12.2581 3.26261C11.4573 3.03632 9.70694 3.03089 8.87127 3.24832C8.04092 3.46818 6.71997 4.13661 6.1448 4.62804C5.02135 5.58804 4.13151 6.97732 3.77079 8.33475C3.55432 9.14932 3.55823 10.8098 3.77867 11.6665C3.95463 12.3503 4.67321 13.9065 4.89964 14.0939C5.01428 14.1882 5.13437 14.111 5.63464 13.6215L6.23262 13.0356L6.38406 13.2639C6.46735 13.3896 6.73364 13.7036 6.97581 13.9622L7.41612 14.4325L6.90796 14.9597C6.62847 15.2499 6.3998 15.5166 6.3998 15.5526C6.3998 15.7423 7.91027 16.5212 8.69738 16.7375C9.8659 17.0583 11.264 17.0369 12.5114 16.6789L12.5114 16.6835ZM8.77245 14.0587C8.0851 13.7767 7.65815 13.4365 7.30675 12.8905C7.0513 12.4935 6.77167 11.6538 6.76735 11.2708C6.76491 11.0573 7.86727 11.1965 8.45551 11.4828C9.36115 11.9246 10.1528 13.0785 10.1528 13.9566V14.2726H9.71799C9.47867 14.2726 9.05357 14.1755 8.77245 14.0609V14.0587ZM10.9766 13.9359C10.9766 13.3472 11.2358 12.7519 11.7241 12.219C12.2829 11.6095 12.9628 11.2616 13.7318 11.192L14.3005 11.1406L14.2484 11.644C14.1091 12.9896 12.9204 14.1216 11.5133 14.2489L10.9766 14.2975V13.9359H10.9766ZM9.21311 11.1605C7.96101 10.8663 6.98366 9.77589 6.81544 8.48547L6.75722 8.03889L7.26523 8.09889C8.798 8.27847 9.984 9.38189 10.1267 10.7612L10.1784 11.2603L9.8681 11.246C9.69744 11.246 9.40269 11.2003 9.21311 11.156L9.21311 11.1605ZM10.9982 10.7428C11.1092 9.52204 12.0544 8.49161 13.3397 8.19004C14.2003 7.98804 14.272 8.00618 14.272 8.42675C14.272 9.44404 13.4258 10.5938 12.3936 10.9789C12.0936 11.0903 11.6458 11.2062 11.3984 11.2355L10.9486 11.2883L10.9982 10.7425L10.9982 10.7428ZM10.2512 8.74347C9.73055 8.15218 9.55958 7.66861 9.55958 6.78718C9.55958 5.90961 9.73065 5.42189 10.2423 4.84089C10.5828 4.45418 10.6347 4.47018 11.0663 5.09575C11.3647 5.52818 11.6174 6.30689 11.6174 6.79404C11.6174 7.37961 11.2809 8.28204 10.9051 8.70432L10.5591 9.09318L10.2512 8.74347Z" fill="#E5E5E5"/>
</svg>
