<svg width="126" height="126" viewBox="0 0 126 126" fill="none" xmlns="http://www.w3.org/2000/svg">
<path d="M99 126C106.7 126 113 119.273 113 111.051H105C105 114.575 102.3 117.458 99 117.458H27C23.7 117.458 21 114.575 21 111.051H13C13 119.273 19.3 126 27 126H99Z" fill="#E5E5E5"/>
<path d="M21 53.3898C21 28.6169 39.8 8.54237 63 8.54237C86.2 8.54237 105 28.6169 105 53.3898H113C113 23.9186 90.6 0 63 0C35.4 0 13 23.9186 13 53.3898H21Z" fill="#E5E5E5"/>
<path d="M107 61.9322H92.3L78 77.2017L63.7 61.9322H19C8.5 61.9322 0 71.0085 0 82.2203C0 93.4322 8.5 102.508 19 102.508H107C117.5 102.508 126 93.4322 126 82.2203C126 71.0085 117.5 61.9322 107 61.9322ZM107 93.9661H19C12.9 93.9661 8 88.7339 8 82.2203C8 75.7068 12.9 70.4746 19 70.4746H60.3L78 89.3746L95.7 70.4746H107C113.1 70.4746 118 75.7068 118 82.2203C118 88.7339 113.1 93.9661 107 93.9661Z" fill="#E5E5E5"/>
<path d="M43 45.1678H35V53.7102H43V45.1678Z" fill="#E5E5E5"/>
<path d="M63 25.9474H55V34.4898H63V25.9474Z" fill="#E5E5E5"/>
</svg>
