<svg width="40" height="40" viewBox="0 0 40 40" fill="none" xmlns="http://www.w3.org/2000/svg">
<path d="M20 3.33331C10.81 3.33331 3.33333 10.81 3.33333 20C3.33333 29.19 10.81 36.6666 20 36.6666C29.19 36.6666 36.6667 29.19 36.6667 20C36.6667 10.81 29.19 3.33331 20 3.33331ZM6.66667 20C6.66667 18.5016 6.92667 17.0633 7.385 15.7183L10 18.3333L13.3333 21.6666V25L16.6667 28.3333L18.3333 30V33.2183C11.7683 32.3933 6.66667 26.7866 6.66667 20ZM30.55 28.1216C29.4617 27.245 27.8117 26.6666 26.6667 26.6666V25C26.6667 24.1159 26.3155 23.2681 25.6904 22.643C25.0652 22.0178 24.2174 21.6666 23.3333 21.6666H16.6667V16.6666C17.5507 16.6666 18.3986 16.3155 19.0237 15.6903C19.6488 15.0652 20 14.2174 20 13.3333V11.6666H21.6667C22.5507 11.6666 23.3986 11.3155 24.0237 10.6903C24.6488 10.0652 25 9.21737 25 8.33331V7.64831C29.88 9.62998 33.3333 14.4166 33.3333 20C33.333 22.9411 32.3538 25.7985 30.55 28.1216Z" fill="#E5E5E5"/>
</svg>
