<svg width="40" height="40" viewBox="0 0 40 40" fill="none" xmlns="http://www.w3.org/2000/svg">
<path d="M19.9983 12.295C17.9544 12.295 15.9942 13.1069 14.5489 14.5522C13.1036 15.9975 12.2917 17.9577 12.2917 20.0017C12.2917 22.0456 13.1036 24.0058 14.5489 25.4511C15.9942 26.8964 17.9544 27.7083 19.9983 27.7083C22.0423 27.7083 24.0025 26.8964 25.4478 25.4511C26.8931 24.0058 27.705 22.0456 27.705 20.0017C27.705 17.9577 26.8931 15.9975 25.4478 14.5522C24.0025 13.1069 22.0423 12.295 19.9983 12.295ZM19.9983 25.0066C18.6705 25.0066 17.397 24.4792 16.4581 23.5402C15.5192 22.6013 14.9917 21.3278 14.9917 20C14.9917 18.6721 15.5192 17.3987 16.4581 16.4597C17.397 15.5208 18.6705 14.9933 19.9983 14.9933C21.3262 14.9933 22.5997 15.5208 23.5386 16.4597C24.4775 17.3987 25.005 18.6721 25.005 20C25.005 21.3278 24.4775 22.6013 23.5386 23.5402C22.5997 24.4792 21.3262 25.0066 19.9983 25.0066Z" fill="#E5E5E5"/>
<path d="M28.01 13.8084C29.0023 13.8084 29.8067 13.004 29.8067 12.0117C29.8067 11.0194 29.0023 10.215 28.01 10.215C27.0177 10.215 26.2133 11.0194 26.2133 12.0117C26.2133 13.004 27.0177 13.8084 28.01 13.8084Z" fill="#E5E5E5"/>
<path d="M34.2217 10.185C33.8358 9.1886 33.2462 8.28377 32.4906 7.5284C31.7349 6.77303 30.8299 6.18375 29.8333 5.7983C28.6672 5.36056 27.4353 5.12387 26.19 5.0983C24.585 5.0283 24.0767 5.0083 20.0067 5.0083C15.9367 5.0083 15.415 5.0083 13.8233 5.0983C12.579 5.12256 11.3479 5.3593 10.1833 5.7983C9.18657 6.1833 8.28129 6.77242 7.52557 7.52785C6.76985 8.28328 6.18039 9.18834 5.79501 10.185C5.35719 11.351 5.12104 12.583 5.09668 13.8283C5.02501 15.4316 5.00335 15.94 5.00335 20.0116C5.00335 24.0816 5.00335 24.6 5.09668 26.195C5.12168 27.4416 5.35668 28.6716 5.79501 29.84C6.18147 30.8362 6.77151 31.7409 7.52741 32.4963C8.28331 33.2516 9.18845 33.8409 10.185 34.2266C11.3474 34.682 12.579 34.9356 13.8267 34.9766C15.4317 35.0466 15.94 35.0683 20.01 35.0683C24.08 35.0683 24.6017 35.0683 26.1933 34.9766C27.4385 34.9513 28.6704 34.7152 29.8367 34.2783C30.8329 33.892 31.7377 33.3022 32.4933 32.5466C33.2489 31.791 33.8387 30.8862 34.225 29.89C34.6633 28.7233 34.8983 27.4933 34.9233 26.2466C34.995 24.6433 35.0167 24.135 35.0167 20.0633C35.0167 15.9916 35.0167 15.475 34.9233 13.88C34.9039 12.6171 34.6666 11.367 34.2217 10.185ZM32.1917 26.0716C32.1809 27.0321 32.0056 27.9837 31.6733 28.885C31.4231 29.5331 31.0399 30.1216 30.5485 30.6128C30.057 31.1039 29.4683 31.4867 28.82 31.7366C27.9287 32.0674 26.9873 32.2427 26.0367 32.255C24.4533 32.3283 24.0067 32.3466 19.9467 32.3466C15.8833 32.3466 15.4683 32.3466 13.855 32.255C12.9049 32.2433 11.9639 32.068 11.0733 31.7366C10.4228 31.4883 9.83168 31.1061 9.33816 30.6149C8.84464 30.1237 8.45974 29.5343 8.20835 28.885C7.88076 27.9934 7.70553 27.053 7.69001 26.1033C7.61835 24.52 7.60168 24.0733 7.60168 20.0133C7.60168 15.9516 7.60168 15.5366 7.69001 13.9216C7.70078 12.9617 7.8761 12.0107 8.20835 11.11C8.71668 9.79497 9.75835 8.75997 11.0733 8.25663C11.9643 7.92687 12.9051 7.75157 13.855 7.7383C15.44 7.66663 15.885 7.64663 19.9467 7.64663C24.0083 7.64663 24.425 7.64663 26.0367 7.7383C26.9874 7.74974 27.9289 7.92509 28.82 8.25663C29.4682 8.50709 30.0569 8.8903 30.5483 9.38168C31.0397 9.87306 31.4229 10.4618 31.6733 11.11C32.0009 12.0016 32.1762 12.9419 32.1917 13.8916C32.2633 15.4766 32.2817 15.9216 32.2817 19.9833C32.2817 24.0433 32.2817 24.48 32.21 26.0733H32.1917V26.0716Z" fill="#E5E5E5"/>
</svg>
