<svg width="12" height="12" viewBox="0 0 12 12" fill="none" xmlns="http://www.w3.org/2000/svg">
<path d="M11.7614 4.60231C11.6022 4.4432 11.4089 4.36368 11.1817 4.36368H7.63626V0.818102C7.63626 0.590904 7.55668 0.397678 7.39763 0.238571C7.23856 0.0795833 7.04548 0 6.81795 0H5.18175C4.95452 0 4.76132 0.0794937 4.60222 0.238601C4.44311 0.397707 4.36359 0.590934 4.36359 0.818132V4.36371H0.818132C0.590934 4.36371 0.397707 4.44323 0.238601 4.60234C0.0794937 4.76144 0 4.95449 0 5.18184V6.81825C0 7.04566 0.0794639 7.23874 0.238571 7.39769C0.397678 7.55686 0.590904 7.63632 0.818102 7.63632H4.36356V11.182C4.36356 11.4092 4.44308 11.6025 4.60219 11.7616C4.76129 11.9205 4.95449 12 5.18172 12H6.81804C7.04542 12 7.23853 11.9205 7.39766 11.7616C7.55683 11.6024 7.63629 11.4092 7.63629 11.182V7.63632H11.1817C11.4091 7.63632 11.6023 7.55686 11.7613 7.39769C11.9204 7.23874 12 7.04566 12 6.81825V5.18184C11.9999 4.95449 11.9205 4.76132 11.7614 4.60231Z" fill="#E5E5E5"/>
</svg>
